<svg xmlns="http://www.w3.org/2000/svg" width="1000" height="700" viewBox="0 0 1000 700">
  <rect width="1000" height="700" fill="#bfe7ff"/>
  <rect y="470" width="1000" height="230" fill="#8ed081"/>
  <circle cx="200" cy="210" r="42" fill="#ffd84d" stroke="#f5a623" stroke-width="8"/>
  <g fill="#fff" opacity=".9"><ellipse cx="115" cy="125" rx="70" ry="28"/><ellipse cx="175" cy="120" rx="55" ry="35"/><ellipse cx="650" cy="115" rx="85" ry="30"/></g>
  <rect x="355" y="300" width="290" height="250" rx="8" fill="#f6dfb5" stroke="#815b3a" stroke-width="8"/>
  <polygon points="320,310 500,185 680,310" fill="#d95757" stroke="#743c38" stroke-width="9"/>
  <rect x="455" y="410" width="90" height="140" fill="#845b42"/><circle cx="520" cy="480" r="7" fill="#f4c542"/>
  <rect x="385" y="355" width="70" height="70" fill="#bde4ff" stroke="#5c7b8c" stroke-width="7"/>
  <rect x="555" y="355" width="60" height="70" fill="#bde4ff" stroke="#5c7b8c" stroke-width="7"/>
  <rect x="760" y="350" width="26" height="230" fill="#76513c"/>
  <circle cx="730" cy="390" r="72" fill="#4baf61"/><circle cx="810" cy="400" r="78" fill="#409d55"/><circle cx="760" cy="330" r="70" fill="#53b969"/>
  <circle cx="700" cy="420" r="18" fill="#ef5350" stroke="#a82e2e" stroke-width="4"/>
  <path d="M270 500 C245 455 300 450 300 500 C300 450 355 455 330 500 Z" fill="#f28bb2" stroke="#8c4163" stroke-width="6"/>
  <circle cx="300" cy="500" r="15" fill="#ffd84d"/><rect x="294" y="500" width="12" height="90" fill="#438b45"/>
  <g transform="translate(820 154)" fill="none" stroke="#27364a" stroke-width="10" stroke-linecap="round"><path d="M-35 0 Q-15 -22 5 0"/><path d="M5 0 Q25 -22 45 0"/></g>
  <path d="M0 610 Q160 560 310 625 T650 620 T1000 600" fill="none" stroke="#dcc89a" stroke-width="55"/>
</svg>
